<svg version="1.2" xmlns="http://www.w3.org/2000/svg" viewBox="0 0 1120 200" width="1120" height="200">
	<title>New Project</title>
	<style>
		.s0 { fill: #0033cc } 
		.s1 { fill: #1b1b1b } 
	</style>
	<path id="Sharpsite" class="s0" aria-label="Sharpsite"  d="m61.2 91.2c-5.7 0-8.5-1.4-8.5-4.9 0-5.2 3.2-7.2 10.7-7.2h62.1l22-22.6h-77.8c-31.4 0-43.8 13.4-43.8 31.1 0 12.6 9.1 20.9 29.4 20.9h48.9c5.6 0 8.4 1.7 8.4 5.2 0 5.1-3.2 7.4-10.7 7.4h-67.9l-21.8 22.4h83.4c31.9 0 44.1-13.7 44.1-32.5 0-13-10.3-19.8-29.7-19.8zm209.8-34.7h-27.7l-5.7 30.8h-53.4l5.8-30.8h-27.7l-16 87h27.9l6-33.6h53.4l-6.1 33.6h27.5zm143.2 86.9l-41.7-78.6c-2.9-5.5-7.6-9.8-15.9-9.8-8.7 0-15 4.7-19.7 9.8l-71.7 78.6h32.8l52.5-57.7 11.9 23c2.1 4.2 4.9 9.5 6.8 12.6-4.3-0.2-10.4-0.2-15.9-0.2h-22.4l-20.9 22.3zm123.5-16.9c-5-6.1-7.8-9.2-10.3-11.4 17.2-3.3 28.9-16.5 28.9-32.3 0-20.8-22.2-26.3-41-26.3h-57.6l-22.2 22.6h77.9c8.6 0 13.7 2.8 13.7 8.6 0 7-8 11.3-17.3 11.3h-77.9l-8 44.4h27.7l4.1-23h42.6l15.8 23h37.1zm152.1-42.1c0-16.6-13.7-27.9-38.6-27.9h-56.2l-22.5 22.6h77.1c7.8 0 11.9 3.2 11.9 8.3 0 6.8-5.8 11.6-15.5 11.6h-77.1l-8 44.4h27.5l4.1-22.2h46.8c31.1 0 50.5-15.2 50.5-36.8z"/>
	<path id="Sharpsite" class="s1" aria-label="Sharpsite"  d="m737.1 91.2c-5.7 0-8.5-1.4-8.5-4.9 0-5.2 3.2-7.2 10.7-7.2h62.1l22-22.6h-77.8c-31.3 0-43.8 13.4-43.8 31.1 0 12.6 9.1 20.9 29.5 20.9h48.8c5.7 0 8.5 1.7 8.5 5.2 0 5.1-3.2 7.4-10.7 7.4h-67.9l-21.9 22.4h83.5c31.8 0 44-13.7 44-32.5 0-13-10.3-19.8-29.7-19.8zm129.1-34.7h-27.6l-16 87h27.8zm26.9 0l-22.2 22.6h42l-11.7 64.3h27.8l11.7-64.3h31.9l22.2-22.6zm126.2 64.6l2.1-11.9h55.2l19.3-19.7h-70.9l1.9-10.4h58l22.1-22.6h-103.7l-15.9 86.9h86.2l22-22.3z"/>
</svg>